<?xml version="1.0" encoding="utf-8"?>
<!-- Generator: Adobe Illustrator 19.2.1, SVG Export Plug-In . SVG Version: 6.00 Build 0)  -->
<svg version="1.1" id="layer" xmlns="http://www.w3.org/2000/svg" xmlns:xlink="http://www.w3.org/1999/xlink" x="0px" y="0px"
	 viewBox="0 0 652 652" style="enable-background:new 0 0 652 652;" xml:space="preserve">
<style type="text/css">
	.st0{fill:white;}
	.st1{fill:white;}
</style>
<rect x="547.1" y="341.1" class="st0" width="29.8" height="29.8"/>
<path class="st1" d="M529.1,323.2h57c5,0,9.1,4.1,9.1,9.1v47.9c0,5-4.1,9.1-9.1,9.1h-48c-5,0-9-4.1-9-9.1v-38.9h-29.8v38.9
	c0,21.4,17.5,38.8,38.9,38.8l47.9,0c21.4,0,38.8-17.4,38.9-38.8v-48c0-21.4-17.4-38.8-38.9-38.8l-57,0V323.2z"/>
<path class="st1" d="M109.7,293.4c-21.4,0-38.8,17.2-38.9,38.6l0,87c20.4,0,29.8-15.1,29.8-29.8v-57.1c0-5,4.1-9.1,9.1-9.1l52.8,0
	v-29.6H109.7z"/>
<path class="st1" d="M292.3,263.2c0-15.6-11-29.8-29.8-29.8c-0.1,0,0,146.6,0,146.6c0,5-4,9-9,9.1h-36c-5,0-9.1-4.1-9.1-9.1v-47.9
	c0-5,4.1-9.1,9.1-9.1h28.8v-29.6h-28.8c-21.4,0-38.9,17.3-38.9,38.7v48c0,21.4,17.5,38.8,38.8,38.8l35.9,0
	c21.4,0,38.8-17.4,38.9-38.8L292.3,263.2z"/>
<rect x="24.9" y="247.5" class="st1" width="29.8" height="29.8"/>
<path class="st1" d="M54.8,293.4H25l0,95.8c0,15,9.4,29.8,29.7,29.8L54.8,293.4z"/>
<path class="st1" d="M480.5,293.2c-5,0-9.1-4.1-9.1-9v-50.9h-29.8l0,155.8c0,14.7,9.5,29.9,29.8,29.9c0,0,0.1,0,0.1,0v-37.7
	c0,0,0,0,0,0V332c0-0.1,0-0.1,0-0.2c0.2-4.9,4.1-8.8,9-8.8h19v-29.8H480.5z"/>
<path class="st1" d="M348.7,389.2c-5,0-9-3.9-9.1-8.9v-48c0-5,4.1-9.1,9.1-9.1h35.9c5,0,9.1,4.1,9.1,9.1v9.1h-37.9v29.8h52.8
	c8.2,0,14.8-6.6,14.9-14.8l0-24c0-21.4-17.4-38.9-38.9-38.9h-36c-21.4,0-38.8,17.5-38.8,38.9l0,47.9c0,21.4,17.4,38.8,38.8,38.9
	l45.3,0c14.7,0,29.5-9.5,29.5-29.8C423.5,389.1,348.7,389.2,348.7,389.2"/>
<rect x="124.8" y="389.3" class="st0" width="29.8" height="29.8"/>
</svg>
