<?xml version="1.0" encoding="UTF-8"?>
<svg version="1.1" xmlns="http://www.w3.org/2000/svg" xmlns:xlink="http://www.w3.org/1999/xlink"
    width="400px" height="400px" 
    viewBox="16 16 400 400" 
>
<!-- Original Image: http://content.codecademy.com/programs/machine-learning/k-means/iris.svg -->
    <!-- Orig dimenstions
      width="1214px" height="488px" 
      viewBox="0 0 1214 488" 
    -->
    <!-- Generator: Sketch 50 (54983) - http://www.bohemiancoding.com/sketch -->
    <title>Iris Versicolor</title>
    <desc>Created with Sketch.</desc>
    <defs>
        <radialGradient cx="52.036542%" cy="56.8393795%" fx="52.036542%" fy="56.8393795%" r="96.6968779%" gradientTransform="translate(0.520365,0.568394),scale(1.000000,0.885999),rotate(-90.000000),translate(-0.520365,-0.568394)" id="radialGradient-1">
            <stop stop-color="#B056FF" offset="0%"></stop>
            <stop stop-color="#F4E3FF" offset="100%"></stop>
        </radialGradient>
        <radialGradient cx="52.036542%" cy="56.8393795%" fx="52.036542%" fy="56.8393795%" r="72.3382077%" gradientTransform="translate(0.520365,0.568394),scale(1.000000,0.885999),rotate(-93.170462),translate(-0.520365,-0.568394)" id="radialGradient-2">
            <stop stop-color="#8800FF" offset="0%"></stop>
            <stop stop-color="#F4E3FF" offset="100%"></stop>
        </radialGradient>
        <radialGradient cx="50.7824656%" cy="40.6628734%" fx="50.7824656%" fy="40.6628734%" r="55.6687454%" gradientTransform="translate(0.507825,0.406629),scale(0.983085,1.000000),rotate(-90.000000),translate(-0.507825,-0.406629)" id="radialGradient-3">
            <stop stop-color="#FFEF4E" offset="0%"></stop>
            <stop stop-color="#8800FF" offset="100%"></stop>
        </radialGradient>
        <radialGradient cx="52.036542%" cy="56.8393795%" fx="52.036542%" fy="56.8393795%" r="88.7119927%" gradientTransform="translate(0.520365,0.568394),scale(1.000000,0.892129),rotate(43.196465),translate(-0.520365,-0.568394)" id="radialGradient-4">
            <stop stop-color="#B056FF" offset="0%"></stop>
            <stop stop-color="#F4E3FF" offset="100%"></stop>
        </radialGradient>
        <radialGradient cx="51.6501354%" cy="37.0025252%" fx="51.6501354%" fy="37.0025252%" r="56.640648%" gradientTransform="translate(0.516501,0.370025),scale(1.000000,0.841995),rotate(-89.999999),translate(-0.516501,-0.370025)" id="radialGradient-5">
            <stop stop-color="#FFE543" offset="0%"></stop>
            <stop stop-color="#8800FF" offset="100%"></stop>
        </radialGradient>
        <radialGradient cx="49.6680399%" cy="36.9555267%" fx="49.6680399%" fy="36.9555267%" r="45.2745254%" gradientTransform="translate(0.496680,0.369555),scale(0.871383,1.000000),rotate(158.373509),translate(-0.496680,-0.369555)" id="radialGradient-6">
            <stop stop-color="#FFE109" offset="0%"></stop>
            <stop stop-color="#A13AFA" offset="100%"></stop>
        </radialGradient>
    </defs>
    <!-- <rect id="Bounding" stroke="red"  x="16" y="16" width="400" height="400" fill="none" strokewidth="4" ></rect> -->
    <g id="iris-versicolor"  Zdisplay="none" stroke="none" stroke-width="1" fill="none" fill-rule="evenodd">

        <!-- bg box 1 -->
        <!-- <rect id="Rectangle" fill="#E7E7E7" x="34" y="33" width="363" height="363"></rect> -->
        <!-- Iris Verisolor title -->
        <!-- <path d="M114.578125,447 L114.578125,424.109375 L118.8125,424.109375 L118.8125,447 L114.578125,447 Z M123.5,447 L123.5,429.828125 L126.9375,429.828125 L127.46875,432.453125 C128.593756,430.651033 130.223948,429.75 132.359375,429.75 C132.807294,429.75 133.171874,429.770833 133.453125,429.8125 L133.390625,433.234375 C132.973956,433.171875 132.541669,433.140625 132.09375,433.140625 C130.583326,433.140625 129.455733,433.541663 128.710938,434.34375 C127.966142,435.145837 127.59375,436.26041 127.59375,437.6875 L127.59375,447 L123.5,447 Z M136.046875,447 L136.046875,429.828125 L140.140625,429.828125 L140.140625,447 L136.046875,447 Z M136.046875,427.328125 L136.046875,423.828125 L140.15625,423.828125 L140.15625,427.328125 L136.046875,427.328125 Z M149.890625,447.3125 C147.359362,447.3125 145.333341,446.880213 143.8125,446.015625 L144.234375,442.9375 C144.921878,443.312502 145.79687,443.648436 146.859375,443.945312 C147.92188,444.242189 148.890621,444.390625 149.765625,444.390625 C150.67188,444.390625 151.377602,444.221356 151.882812,443.882812 C152.388023,443.544269 152.645833,443.046878 152.65625,442.390625 C152.65625,441.796872 152.419273,441.328127 151.945312,440.984375 C151.471352,440.640623 150.567715,440.213544 149.234375,439.703125 C148.776039,439.536457 148.479167,439.427084 148.34375,439.375 C146.760409,438.760414 145.619795,438.075525 144.921875,437.320312 C144.223955,436.5651 143.875,435.541673 143.875,434.25 C143.875,432.687492 144.440099,431.489587 145.570312,430.65625 C146.700526,429.822912 148.276032,429.40625 150.296875,429.40625 C152.484386,429.40625 154.406242,429.817704 156.0625,430.640625 L155.046875,433.46875 C153.41145,432.70833 151.854174,432.328125 150.375,432.328125 C149.552079,432.328125 148.908856,432.466144 148.445312,432.742188 C147.981769,433.018231 147.75,433.437497 147.75,434 C147.75,434.531253 147.973956,434.945311 148.421875,435.242188 C148.869794,435.539064 149.744785,435.927081 151.046875,436.40625 C151.088542,436.416667 151.223957,436.463541 151.453125,436.546875 C151.682293,436.630209 151.859374,436.697916 151.984375,436.75 C153.5573,437.32292 154.713538,438.007809 155.453125,438.804688 C156.192712,439.601566 156.5625,440.640619 156.5625,441.921875 C156.552083,443.640634 155.968756,444.968745 154.8125,445.90625 C153.656244,446.843755 152.015636,447.3125 149.890625,447.3125 Z M174.40625,447 L166.078125,424.109375 L170.4375,424.109375 L175.28125,438.25 C175.468751,438.739586 175.901038,440.171863 176.578125,442.546875 C176.619792,442.380207 176.812498,441.695319 177.15625,440.492188 C177.500002,439.289056 177.723958,438.552085 177.828125,438.28125 C177.953126,437.927082 178.744784,435.575543 180.203125,431.226562 C181.661466,426.877582 182.458333,424.50521 182.59375,424.109375 L186.90625,424.109375 L178.6875,447 L174.40625,447 Z M196.828125,447.328125 C194.067695,447.328125 191.919279,446.533862 190.382812,444.945312 C188.846346,443.356763 188.078125,441.161472 188.078125,438.359375 C188.078125,435.630195 188.802076,433.458341 190.25,431.84375 C191.697924,430.229159 193.671863,429.416667 196.171875,429.40625 C198.53647,429.40625 200.372389,430.145826 201.679688,431.625 C202.986986,433.104174 203.640625,435.067696 203.640625,437.515625 C203.640625,437.692709 203.638021,437.979165 203.632812,438.375 C203.627604,438.770835 203.625,439.062499 203.625,439.25 L192.203125,439.25 C192.244792,440.854175 192.684892,442.09635 193.523438,442.976562 C194.361983,443.856775 195.515618,444.296875 196.984375,444.296875 C198.859384,444.296875 200.66145,443.807297 202.390625,442.828125 L202.96875,445.734375 C201.249991,446.79688 199.203137,447.328125 196.828125,447.328125 Z M192.28125,436.671875 L199.78125,436.671875 C199.78125,435.276035 199.463545,434.203129 198.828125,433.453125 C198.192705,432.703121 197.312506,432.328125 196.1875,432.328125 C195.135411,432.328125 194.247399,432.692705 193.523438,433.421875 C192.799476,434.151045 192.385417,435.234368 192.28125,436.671875 Z M206.984375,447 L206.984375,429.828125 L210.421875,429.828125 L210.953125,432.453125 C212.078131,430.651033 213.708323,429.75 215.84375,429.75 C216.291669,429.75 216.656249,429.770833 216.9375,429.8125 L216.875,433.234375 C216.458331,433.171875 216.026044,433.140625 215.578125,433.140625 C214.067701,433.140625 212.940108,433.541663 212.195312,434.34375 C211.450517,435.145837 211.078125,436.26041 211.078125,437.6875 L211.078125,447 L206.984375,447 Z M224.921875,447.3125 C222.390612,447.3125 220.364591,446.880213 218.84375,446.015625 L219.265625,442.9375 C219.953128,443.312502 220.82812,443.648436 221.890625,443.945312 C222.95313,444.242189 223.921871,444.390625 224.796875,444.390625 C225.70313,444.390625 226.408852,444.221356 226.914062,443.882812 C227.419273,443.544269 227.677083,443.046878 227.6875,442.390625 C227.6875,441.796872 227.450523,441.328127 226.976562,440.984375 C226.502602,440.640623 225.598965,440.213544 224.265625,439.703125 C223.807289,439.536457 223.510417,439.427084 223.375,439.375 C221.791659,438.760414 220.651045,438.075525 219.953125,437.320312 C219.255205,436.5651 218.90625,435.541673 218.90625,434.25 C218.90625,432.687492 219.471349,431.489587 220.601562,430.65625 C221.731776,429.822912 223.307282,429.40625 225.328125,429.40625 C227.515636,429.40625 229.437492,429.817704 231.09375,430.640625 L230.078125,433.46875 C228.4427,432.70833 226.885424,432.328125 225.40625,432.328125 C224.583329,432.328125 223.940106,432.466144 223.476562,432.742188 C223.013019,433.018231 222.78125,433.437497 222.78125,434 C222.78125,434.531253 223.005206,434.945311 223.453125,435.242188 C223.901044,435.539064 224.776035,435.927081 226.078125,436.40625 C226.119792,436.416667 226.255207,436.463541 226.484375,436.546875 C226.713543,436.630209 226.890624,436.697916 227.015625,436.75 C228.58855,437.32292 229.744788,438.007809 230.484375,438.804688 C231.223962,439.601566 231.59375,440.640619 231.59375,441.921875 C231.583333,443.640634 231.000006,444.968745 229.84375,445.90625 C228.687494,446.843755 227.046886,447.3125 224.921875,447.3125 Z M234.921875,447 L234.921875,429.828125 L239.015625,429.828125 L239.015625,447 L234.921875,447 Z M234.921875,427.328125 L234.921875,423.828125 L239.03125,423.828125 L239.03125,427.328125 L234.921875,427.328125 Z M250.796875,447.328125 C248.171862,447.328125 246.127611,446.546883 244.664062,444.984375 C243.200514,443.421867 242.46875,441.187515 242.46875,438.28125 C242.46875,435.468736 243.236971,433.286466 244.773438,431.734375 C246.309904,430.182284 248.333321,429.40625 250.84375,429.40625 C252.854177,429.40625 254.552076,429.838537 255.9375,430.703125 L254.96875,433.625 C253.552076,432.885413 252.234381,432.515625 251.015625,432.515625 C249.630201,432.515625 248.539066,433.010412 247.742188,434 C246.945309,434.989588 246.546875,436.432282 246.546875,438.328125 C246.546875,440.244801 246.9401,441.70312 247.726562,442.703125 C248.513025,443.70313 249.624993,444.203125 251.0625,444.203125 C252.562508,444.203125 254.005201,443.760421 255.390625,442.875 L255.78125,445.984375 C255.062496,446.463544 254.317712,446.807291 253.546875,447.015625 C252.776038,447.223959 251.85938,447.328125 250.796875,447.328125 Z M266.515625,444.21875 C267.901049,444.21875 268.942705,443.713547 269.640625,442.703125 C270.338545,441.692703 270.6875,440.244801 270.6875,438.359375 C270.6875,436.453115 270.338545,435.000005 269.640625,434 C268.942705,432.999995 267.890632,432.5 266.484375,432.5 C265.098951,432.5 264.054691,433.002599 263.351562,434.007812 C262.648434,435.013026 262.296875,436.46874 262.296875,438.375 C262.296875,440.250009 262.651038,441.692703 263.359375,442.703125 C264.067712,443.713547 265.119785,444.21875 266.515625,444.21875 Z M266.40625,447.328125 C263.864571,447.328125 261.864591,446.505217 260.40625,444.859375 C258.947909,443.213533 258.21875,441.046888 258.21875,438.359375 C258.21875,435.588528 258.947909,433.403654 260.40625,431.804688 C261.864591,430.205721 263.921862,429.40625 266.578125,429.40625 C269.140638,429.40625 271.14843,430.221346 272.601562,431.851562 C274.054695,433.481779 274.78125,435.651028 274.78125,438.359375 C274.78125,441.098972 274.046882,443.278638 272.578125,444.898438 C271.109368,446.518237 269.052097,447.328125 266.40625,447.328125 Z M284.140625,447.234375 C282.963536,447.234375 281.986983,447.096356 281.210938,446.820312 C280.434892,446.544269 279.822919,446.10417 279.375,445.5 C278.927081,444.89583 278.614584,444.177087 278.4375,443.34375 C278.260416,442.510413 278.171875,441.473965 278.171875,440.234375 L278.171875,423.5 L282.265625,423.234375 L282.265625,440.15625 C282.265625,441.697924 282.447915,442.742185 282.8125,443.289062 C283.177085,443.83594 283.885411,444.109375 284.9375,444.109375 C285.458336,444.109375 286.119788,444.052084 286.921875,443.9375 L287.03125,446.859375 C287.020833,446.859375 286.89323,446.885416 286.648438,446.9375 C286.403645,446.989584 286.169272,447.033854 285.945312,447.070312 C285.721353,447.106771 285.437502,447.143229 285.09375,447.179688 C284.749998,447.216146 284.432293,447.234375 284.140625,447.234375 Z M296.546875,444.21875 C297.932299,444.21875 298.973955,443.713547 299.671875,442.703125 C300.369795,441.692703 300.71875,440.244801 300.71875,438.359375 C300.71875,436.453115 300.369795,435.000005 299.671875,434 C298.973955,432.999995 297.921882,432.5 296.515625,432.5 C295.130201,432.5 294.085941,433.002599 293.382812,434.007812 C292.679684,435.013026 292.328125,436.46874 292.328125,438.375 C292.328125,440.250009 292.682288,441.692703 293.390625,442.703125 C294.098962,443.713547 295.151035,444.21875 296.546875,444.21875 Z M296.4375,447.328125 C293.895821,447.328125 291.895841,446.505217 290.4375,444.859375 C288.979159,443.213533 288.25,441.046888 288.25,438.359375 C288.25,435.588528 288.979159,433.403654 290.4375,431.804688 C291.895841,430.205721 293.953112,429.40625 296.609375,429.40625 C299.171888,429.40625 301.17968,430.221346 302.632812,431.851562 C304.085945,433.481779 304.8125,435.651028 304.8125,438.359375 C304.8125,441.098972 304.078132,443.278638 302.609375,444.898438 C301.140618,446.518237 299.083347,447.328125 296.4375,447.328125 Z M308.171875,447 L308.171875,429.828125 L311.609375,429.828125 L312.140625,432.453125 C313.265631,430.651033 314.895823,429.75 317.03125,429.75 C317.479169,429.75 317.843749,429.770833 318.125,429.8125 L318.0625,433.234375 C317.645831,433.171875 317.213544,433.140625 316.765625,433.140625 C315.255201,433.140625 314.127608,433.541663 313.382812,434.34375 C312.638017,435.145837 312.265625,436.26041 312.265625,437.6875 L312.265625,447 L308.171875,447 Z" id="Iris-Versicolor" fill="#000000"></path> -->

        <!-- Sepal Text -->
        <!-- <path d="M52.7109375,239.140625 C54.515634,240.031254 56.4492084,240.476562 58.5117188,240.476562 C61.0507939,240.476562 62.3203125,239.320324 62.3203125,237.007812 C62.3203125,236.257809 62.1191426,235.650393 61.7167969,235.185547 C61.3144511,234.720701 60.5820366,234.35547 59.5195312,234.089844 L56.0742188,233.222656 C53.4413931,232.55859 52.125,231.152354 52.125,229.003906 C52.125,227.355461 52.6914006,226.130863 53.8242188,225.330078 C54.9570369,224.529293 56.5234275,224.128906 58.5234375,224.128906 C59.5703177,224.128906 60.5507767,224.242186 61.4648438,224.46875 C62.3789108,224.695314 63.1445282,224.999998 63.7617188,225.382812 L63.1757812,227.035156 C62.6523411,226.746092 61.9589887,226.488282 61.0957031,226.261719 C60.2324176,226.035155 59.3593794,225.921875 58.4765625,225.921875 C55.6484234,225.921875 54.234375,226.902334 54.234375,228.863281 C54.234375,229.527347 54.4511697,230.060545 54.8847656,230.462891 C55.3183615,230.865236 55.9687457,231.171874 56.8359375,231.382812 L60.1289062,232.179688 C61.5351633,232.515627 62.6015589,233.052731 63.328125,233.791016 C64.0546911,234.529301 64.4179688,235.578118 64.4179688,236.9375 C64.4179688,238.703134 63.8769585,240.033199 62.7949219,240.927734 C61.7128852,241.82227 60.2421968,242.269531 58.3828125,242.269531 C56.9921805,242.269531 55.7558648,242.126955 54.6738281,241.841797 C53.5917915,241.556639 52.7343782,241.218752 52.1015625,240.828125 L52.7109375,239.140625 Z M72.1054688,230.492188 C71.1054637,230.492188 70.2890657,230.8457 69.65625,231.552734 C69.0234343,232.259769 68.6523443,233.226556 68.5429688,234.453125 L75.328125,234.453125 C75.328125,233.179681 75.0410185,232.201175 74.4667969,231.517578 C73.8925753,230.833981 73.1054738,230.492188 72.1054688,230.492188 Z M72.4921875,242.269531 C70.6249907,242.269531 69.1543022,241.675787 68.0800781,240.488281 C67.005854,239.300775 66.46875,237.675792 66.46875,235.613281 C66.46875,233.621084 66.9882761,232.005866 68.0273438,230.767578 C69.0664114,229.529291 70.4335853,228.898438 72.1289062,228.875 C73.7226642,228.875 74.9863235,229.419916 75.9199219,230.509766 C76.8535203,231.599615 77.3203125,233.054678 77.3203125,234.875 C77.3203125,234.96875 77.3183594,235.140624 77.3144531,235.390625 C77.3105469,235.640626 77.3085938,235.820312 77.3085938,235.929688 L68.484375,235.929688 C68.5078126,237.390632 68.884762,238.529293 69.6152344,239.345703 C70.3457068,240.162113 71.3281188,240.570312 72.5625,240.570312 C73.9218818,240.570312 75.2851494,240.210941 76.6523438,239.492188 L76.9570312,241.074219 C75.6523372,241.871098 74.1640709,242.269531 72.4921875,242.269531 Z M80.0390625,247.578125 L80.0390625,229.144531 L81.7617188,229.144531 L81.9492188,230.890625 C83.0742244,229.546868 84.4257734,228.875 86.0039062,228.875 C87.1757871,228.875 88.1679647,229.167966 88.9804688,229.753906 C89.7929728,230.339847 90.3925762,231.132808 90.7792969,232.132812 C91.1660176,233.132817 91.359375,234.300775 91.359375,235.636719 C91.359375,236.917975 91.1484396,238.056636 90.7265625,239.052734 C90.3046854,240.048833 89.685551,240.833982 88.8691406,241.408203 C88.0527303,241.982425 87.0976617,242.269531 86.0039062,242.269531 C85.1757771,242.269531 84.3984411,242.083986 83.671875,241.712891 C82.9453089,241.341795 82.3632834,240.851566 81.9257812,240.242188 C81.9726565,241.085942 81.9960938,241.906246 81.9960938,242.703125 L81.9960938,247.449219 L80.0390625,247.578125 Z M85.734375,240.617188 C86.328128,240.617188 86.8593727,240.482423 87.328125,240.212891 C87.7968773,239.943358 88.1757798,239.574221 88.4648438,239.105469 C88.7539077,238.636716 88.9726555,238.103519 89.1210938,237.505859 C89.269532,236.9082 89.34375,236.261722 89.34375,235.566406 C89.34375,234.097649 89.0351593,232.892583 88.4179688,231.951172 C87.8007782,231.009761 86.8984434,230.539062 85.7109375,230.539062 C83.2265501,230.539062 81.984375,232.144515 81.984375,235.355469 C81.984375,237.097665 82.2753877,238.410152 82.8574219,239.292969 C83.439456,240.175786 84.3984308,240.617188 85.734375,240.617188 Z M97.828125,240.6875 C98.7578171,240.6875 99.5761683,240.431643 100.283203,239.919922 C100.990238,239.408201 101.445311,238.718754 101.648438,237.851562 L101.648438,235.683594 C101.609375,235.683594 101.373049,235.703125 100.939453,235.742188 C100.505857,235.78125 100.222657,235.804687 100.089844,235.8125 C98.3945228,235.960938 97.212894,236.238279 96.5449219,236.644531 C95.8769498,237.050783 95.5429688,237.703121 95.5429688,238.601562 C95.5429688,239.289066 95.7460917,239.808592 96.1523438,240.160156 C96.5585958,240.511721 97.1171839,240.6875 97.828125,240.6875 Z M102.082031,242 C101.964843,241.499998 101.851563,240.96094 101.742188,240.382812 C101.031246,241.093754 100.363284,241.585936 99.7382812,241.859375 C99.1132781,242.132814 98.3789105,242.269531 97.5351562,242.269531 C96.3320252,242.269531 95.365238,241.955081 94.6347656,241.326172 C93.9042932,240.697262 93.5390625,239.792975 93.5390625,238.613281 C93.5390625,237.300775 94.0371044,236.328128 95.0332031,235.695312 C96.0293019,235.062497 97.4648344,234.66797 99.3398438,234.511719 C99.5976575,234.488281 99.9863255,234.455078 100.505859,234.412109 C101.025393,234.36914 101.414061,234.335938 101.671875,234.3125 L101.671875,233.175781 C101.671875,232.269527 101.46094,231.597658 101.039062,231.160156 C100.617185,230.722654 99.9531295,230.503906 99.046875,230.503906 C97.7812437,230.503906 96.5039127,230.816403 95.2148438,231.441406 C95.1757811,231.347656 95.0742196,231.076174 94.9101562,230.626953 C94.7460929,230.177732 94.6601563,229.945313 94.6523438,229.929688 C95.2226591,229.609373 95.9003867,229.353517 96.6855469,229.162109 C97.4707071,228.970702 98.2695272,228.875 99.0820312,228.875 C100.683602,228.875 101.837887,229.224606 102.544922,229.923828 C103.251957,230.62305 103.605469,231.812492 103.605469,233.492188 L103.605469,242 L102.082031,242 Z M110.4375,242.234375 C109.187494,242.234375 108.302737,241.898441 107.783203,241.226562 C107.263669,240.554684 107.003906,239.386727 107.003906,237.722656 L107.003906,224.152344 L108.949219,224.035156 L108.949219,236.949219 C108.949219,237.480471 108.955078,237.906248 108.966797,238.226562 C108.978516,238.546877 109.007812,238.861327 109.054688,239.169922 C109.101563,239.478517 109.164062,239.710937 109.242188,239.867188 C109.320313,240.023438 109.433593,240.166015 109.582031,240.294922 C109.730469,240.423829 109.908202,240.509765 110.115234,240.552734 C110.322267,240.595703 110.578123,240.617188 110.882812,240.617188 C111.132814,240.617188 111.624996,240.570313 112.359375,240.476562 L112.464844,242.035156 C111.660152,242.167969 110.984378,242.234375 110.4375,242.234375 Z" id="Sepal" fill="#000000"></path> -->
        <!-- Petal Text -->
        <!-- <path d="M313.785156,125 L311.710938,125 L311.710938,107.46875 L317.359375,107.46875 C318.218754,107.46875 318.99609,107.558593 319.691406,107.738281 C320.386722,107.91797 321.003904,108.191404 321.542969,108.558594 C322.082034,108.925783 322.499999,109.417966 322.796875,110.035156 C323.093751,110.652347 323.242188,111.37109 323.242188,112.191406 C323.242188,112.871097 323.179688,113.478513 323.054688,114.013672 C322.929687,114.548831 322.714845,115.050779 322.410156,115.519531 C322.105467,115.988284 321.707034,116.376952 321.214844,116.685547 C320.722654,116.994142 320.091801,117.236327 319.322266,117.412109 C318.552731,117.587892 317.660161,117.675781 316.644531,117.675781 C315.83984,117.675781 314.886724,117.625001 313.785156,117.523438 L313.785156,125 Z M316.84375,115.882812 C317.609379,115.882812 318.265622,115.808594 318.8125,115.660156 C319.359378,115.511718 319.779295,115.328126 320.072266,115.109375 C320.365236,114.890624 320.595702,114.605471 320.763672,114.253906 C320.931641,113.902342 321.035156,113.58008 321.074219,113.287109 C321.113281,112.994139 321.132812,112.640627 321.132812,112.226562 C321.132812,111.23437 320.798831,110.503909 320.130859,110.035156 C319.462887,109.566404 318.554693,109.332031 317.40625,109.332031 L313.785156,109.332031 L313.785156,115.859375 C315.292976,115.875 316.312497,115.882812 316.84375,115.882812 Z M330.308594,113.492188 C329.308589,113.492188 328.492191,113.8457 327.859375,114.552734 C327.226559,115.259769 326.855469,116.226556 326.746094,117.453125 L333.53125,117.453125 C333.53125,116.179681 333.244143,115.201175 332.669922,114.517578 C332.0957,113.833981 331.308599,113.492188 330.308594,113.492188 Z M330.695312,125.269531 C328.828116,125.269531 327.357427,124.675787 326.283203,123.488281 C325.208979,122.300775 324.671875,120.675792 324.671875,118.613281 C324.671875,116.621084 325.191401,115.005866 326.230469,113.767578 C327.269536,112.529291 328.63671,111.898438 330.332031,111.875 C331.925789,111.875 333.189448,112.419916 334.123047,113.509766 C335.056645,114.599615 335.523438,116.054678 335.523438,117.875 C335.523438,117.96875 335.521484,118.140624 335.517578,118.390625 C335.513672,118.640626 335.511719,118.820312 335.511719,118.929688 L326.6875,118.929688 C326.710938,120.390632 327.087887,121.529293 327.818359,122.345703 C328.548832,123.162113 329.531244,123.570312 330.765625,123.570312 C332.125007,123.570312 333.488274,123.210941 334.855469,122.492188 L335.160156,124.074219 C333.855462,124.871098 332.367196,125.269531 330.695312,125.269531 Z M342.34375,125.234375 C341.078119,125.234375 340.17969,124.925784 339.648438,124.308594 C339.117185,123.691403 338.835938,122.695319 338.804688,121.320312 L338.804688,113.597656 L336.894531,113.597656 L336.976562,112.308594 L338.792969,112.144531 L339.460938,109.203125 L340.75,109.15625 L340.75,112.144531 L344.324219,112.144531 L344.324219,113.597656 L340.75,113.597656 L340.75,120.96875 C340.75,121.945317 340.898436,122.632811 341.195312,123.03125 C341.492189,123.429689 341.999996,123.628906 342.71875,123.628906 C342.976564,123.628906 343.535152,123.566407 344.394531,123.441406 L344.476562,124.988281 C343.54687,125.152345 342.83594,125.234375 342.34375,125.234375 Z M350.277344,123.6875 C351.207036,123.6875 352.025387,123.431643 352.732422,122.919922 C353.439457,122.408201 353.89453,121.718754 354.097656,120.851562 L354.097656,118.683594 C354.058594,118.683594 353.822268,118.703125 353.388672,118.742188 C352.955076,118.78125 352.671876,118.804687 352.539062,118.8125 C350.843742,118.960938 349.662113,119.238279 348.994141,119.644531 C348.326169,120.050783 347.992188,120.703121 347.992188,121.601562 C347.992188,122.289066 348.19531,122.808592 348.601562,123.160156 C349.007815,123.511721 349.566403,123.6875 350.277344,123.6875 Z M354.53125,125 C354.414062,124.499998 354.300782,123.96094 354.191406,123.382812 C353.480465,124.093754 352.812503,124.585936 352.1875,124.859375 C351.562497,125.132814 350.828129,125.269531 349.984375,125.269531 C348.781244,125.269531 347.814457,124.955081 347.083984,124.326172 C346.353512,123.697262 345.988281,122.792975 345.988281,121.613281 C345.988281,120.300775 346.486323,119.328128 347.482422,118.695312 C348.478521,118.062497 349.914053,117.66797 351.789062,117.511719 C352.046876,117.488281 352.435544,117.455078 352.955078,117.412109 C353.474612,117.36914 353.86328,117.335938 354.121094,117.3125 L354.121094,116.175781 C354.121094,115.269527 353.910158,114.597658 353.488281,114.160156 C353.066404,113.722654 352.402348,113.503906 351.496094,113.503906 C350.230462,113.503906 348.953131,113.816403 347.664062,114.441406 C347.625,114.347656 347.523438,114.076174 347.359375,113.626953 C347.195312,113.177732 347.109375,112.945313 347.101562,112.929688 C347.671878,112.609373 348.349605,112.353517 349.134766,112.162109 C349.919926,111.970702 350.718746,111.875 351.53125,111.875 C353.132821,111.875 354.287106,112.224606 354.994141,112.923828 C355.701175,113.62305 356.054688,114.812492 356.054688,116.492188 L356.054688,125 L354.53125,125 Z M362.886719,125.234375 C361.636712,125.234375 360.751956,124.898441 360.232422,124.226562 C359.712888,123.554684 359.453125,122.386727 359.453125,120.722656 L359.453125,107.152344 L361.398438,107.035156 L361.398438,119.949219 C361.398438,120.480471 361.404297,120.906248 361.416016,121.226562 C361.427734,121.546877 361.457031,121.861327 361.503906,122.169922 C361.550781,122.478517 361.613281,122.710937 361.691406,122.867188 C361.769532,123.023438 361.882812,123.166015 362.03125,123.294922 C362.179688,123.423829 362.357421,123.509765 362.564453,123.552734 C362.771485,123.595703 363.027342,123.617188 363.332031,123.617188 C363.582032,123.617188 364.074215,123.570313 364.808594,123.476562 L364.914062,125.035156 C364.109371,125.167969 363.433596,125.234375 362.886719,125.234375 Z" id="Petal-Copy" fill="#000000"></path> -->
        <!-- Sepal Text Arrow -->
        <!-- <path d="M85,253 L128.192675,287.108545" id="Line-2" stroke="#000000" stroke-width="4" stroke-linecap="round"></path> -->
        <!-- Petal Text Arrow -->
        <!-- <path d="M337.108545,131 L303,174.192675" id="Line-2-Copy" stroke="#000000" stroke-width="4" stroke-linecap="round"></path> -->

        <!-- box 1 sepal -->
        <path d="M214.238497,221.916688 C212.681089,222.036186 211.089046,222.027323 209.553792,221.888871 C210.393682,222.488636 211.22103,223.164052 212.015029,223.893399 C212.722113,223.195652 213.46895,222.531494 214.238497,221.916688 Z M224.403537,218.039869 C224.478476,218.056735 224.552661,218.075288 224.626065,218.095555 C252.306312,225.737887 284.80536,273.001581 318.585774,287.798839 C340.567532,297.715621 341.117663,303.339526 339.756043,313.981731 C338.394423,324.623936 328.747065,332.259692 316.727009,338.664072 C308.133841,351.340833 299.89799,359.333047 289.212457,359.646763 C276.897561,360.008316 272.732245,355.382264 265.946126,335.195791 C252.337299,304.216574 224.636445,275.82329 212.25385,251.177224 C197.031847,275.815511 162.495514,303.747871 150.628519,332.178893 C141.096882,354.330374 135.483434,354.978572 124.819087,353.802892 C114.154739,352.627211 106.351776,343.114585 99.7385923,331.208131 C86.9137909,322.837512 78.7790591,314.742399 78.2789023,304.063969 C77.7024801,291.757258 82.255133,287.511841 102.320097,280.374453 C140.003179,263.029937 173.430439,224.57562 201.408123,219.234997 C200.879965,218.81778 200.442282,218.352956 200.114833,217.840259 C184.658119,193.639199 192.132204,136.769321 176.929762,103.169306 C167.229755,81.0910342 170.584055,76.5435489 178.716961,69.545951 C186.849867,62.5483531 199.128569,63.3292229 212.346579,66.6128284 C227.214956,62.9421108 238.68322,62.5135984 246.834036,69.4304789 C256.227713,77.4020667 256.227713,83.6270341 247.763396,103.169306 C234.714764,142.660216 240.102737,193.494166 224.78142,217.52201 C224.668006,217.699873 224.541782,217.872496 224.403537,218.039869 Z" id="Combined-Shape" stroke="#6C11A2" stroke-width="2" fill="url(#radialGradient-2)"></path>
        <!-- box 1 sepal highlight-top -->
        <path d="M262.447488,143.972517 C259.552598,142.155603 249.571388,136.786433 235.229763,131.783815 C231.614006,130.522574 219.488473,127.153751 220.326575,128.869063 C222.303256,132.914667 279.760748,146.175726 196.91508,129.771026 C191.290374,128.657248 195.48719,132.914667 228.741902,139.257997 C233.161408,140.101017 238.008062,140.497406 242.051166,141.477573 C246.172315,142.47666 262.882156,145.621569 258.213259,145.006559 C104.600324,124.771895 206.866035,140.912547 245.302476,145.601868 C260.302749,147.431931 195.518834,141.977601 179.787778,141.954272 C174.306706,141.946144 201.99675,145.096643 207.286654,145.601868 C215.386139,146.37543 251.693668,148.703403 261.362734,150.746847 C251.693668,150.746847 201.36954,147.116728 189.674534,147.045476 C179.868773,146.985734 151.588139,146.358187 160.696112,147.045476 C178.614174,148.397576 225.797952,152.432897 243.116734,152.911089 C246.81733,153.013267 200.299955,154.572134 178.063241,156.363069 C196.91508,157.301401 243.182117,156.087993 250.112289,156.363069 C254.024322,156.518348 194.721816,160.471016 188.111603,162.139577 C186.854457,162.456908 225.971722,163.388349 240.964937,160.368905 C247.681996,159.016174 259.244048,159.775338 262.984699,157.332575 C268.256257,153.890083 263.380229,149.512104 263.577993,145.601868 L262.447488,143.972517 Z" id="Path-2-Copy" fill="#FFFFFF" transform="translate(212.178759, 145.459439) scale(1, -1) rotate(-95.000000) translate(-212.178759, -145.459439) "></path>
        <!-- box 1 sepal highlight-left -->
        <path d="M201.591505,280.817463 C198.696614,279.000549 188.715404,273.631379 174.373779,268.628761 C170.758022,267.367519 158.63249,263.998697 159.470591,265.714009 C161.447273,269.759613 218.904764,283.020672 136.059097,266.615971 C130.434391,265.502194 134.631207,269.759613 167.885919,276.102943 C172.305424,276.945963 177.152078,277.342352 181.195183,278.322519 C185.316331,279.321606 202.026172,282.466515 197.357275,281.851505 C43.7443406,261.616841 146.010052,277.757493 184.446492,282.446814 C199.446765,284.276877 134.66285,278.822547 118.931795,278.799218 C113.450723,278.79109 141.140766,281.941589 146.430671,282.446814 C154.530155,283.220376 190.837684,285.548349 200.506751,287.591793 C190.837684,287.591793 140.513556,283.961674 128.81855,283.890422 C119.01279,283.83068 90.7321559,283.203132 99.840129,283.890422 C117.75819,285.242522 164.941968,289.277843 182.26075,289.756035 C185.961346,289.858213 139.443971,291.41708 117.207258,293.208015 C136.059097,294.146347 182.326134,292.932939 189.256305,293.208015 C193.168339,293.363294 133.865833,297.315962 127.255619,298.984523 C125.998473,299.301854 165.115738,300.233294 180.108953,297.213851 C186.826012,295.86112 198.388065,296.620284 202.128716,294.177521 C207.400273,290.735029 202.524245,286.35705 202.72201,282.446814 L201.591505,280.817463 Z" id="Path-2-Copy" fill="#FFFFFF" transform="translate(151.322776, 282.304385) scale(1, -1) rotate(-323.000000) translate(-151.322776, -282.304385) "></path>
        <!-- box 1 sepal highlight-left AGAIN ?-->
        <path d="M201.591505,280.817463 C198.696614,279.000549 188.715404,273.631379 174.373779,268.628761 C170.758022,267.367519 158.63249,263.998697 159.470591,265.714009 C161.447273,269.759613 218.904764,283.020672 136.059097,266.615971 C130.434391,265.502194 134.631207,269.759613 167.885919,276.102943 C172.305424,276.945963 177.152078,277.342352 181.195183,278.322519 C185.316331,279.321606 202.026172,282.466515 197.357275,281.851505 C43.7443406,261.616841 146.010052,277.757493 184.446492,282.446814 C199.446765,284.276877 134.66285,278.822547 118.931795,278.799218 C113.450723,278.79109 141.140766,281.941589 146.430671,282.446814 C154.530155,283.220376 190.837684,285.548349 200.506751,287.591793 C190.837684,287.591793 140.513556,283.961674 128.81855,283.890422 C119.01279,283.83068 90.7321559,283.203132 99.840129,283.890422 C117.75819,285.242522 164.941968,289.277843 182.26075,289.756035 C185.961346,289.858213 139.443971,291.41708 117.207258,293.208015 C136.059097,294.146347 182.326134,292.932939 189.256305,293.208015 C193.168339,293.363294 133.865833,297.315962 127.255619,298.984523 C125.998473,299.301854 165.115738,300.233294 180.108953,297.213851 C186.826012,295.86112 198.388065,296.620284 202.128716,294.177521 C207.400273,290.735029 202.524245,286.35705 202.72201,282.446814 L201.591505,280.817463 Z" id="Path-2-Copy-2" fill="#FFFFFF" transform="translate(151.322776, 282.304385) scale(1, -1) rotate(-323.000000) translate(-151.322776, -282.304385) "></path>
        <!-- box 1 sepal highlight-right-->
        <path d="M311.393886,274.984505 C308.498995,273.167591 298.517785,267.798421 284.17616,262.795803 C280.560403,261.534562 268.434871,258.165739 269.272972,259.881051 C271.249654,263.926655 328.707145,277.187714 245.861478,260.783014 C240.236772,259.669236 244.433588,263.926655 277.6883,270.269985 C282.107805,271.113005 286.954459,271.509394 290.997564,272.489561 C295.118712,273.488648 311.828553,276.633557 307.159656,276.018547 C153.546722,255.783883 255.812433,271.924535 294.248873,276.613856 C309.249146,278.443919 244.465231,272.989589 228.734176,272.96626 C223.253104,272.958132 250.943147,276.108631 256.233052,276.613856 C264.332536,277.387418 300.640065,279.715391 310.309132,281.758835 C300.640065,281.758835 250.315937,278.128716 238.620931,278.057464 C228.815171,277.997722 200.534537,277.370175 209.64251,278.057464 C227.560571,279.409564 274.744349,283.444885 292.063131,283.923077 C295.763727,284.025255 249.246352,285.584122 227.009639,287.375058 C245.861478,288.313389 292.128515,287.099981 299.058686,287.375058 C302.97072,287.530336 243.668214,291.483004 237.058,293.151566 C235.800854,293.468896 274.918119,294.400337 289.911334,291.380893 C296.628393,290.028162 308.190446,290.787326 311.931097,288.344563 C317.202654,284.902071 312.326626,280.524092 312.524391,276.613856 L311.393886,274.984505 Z" id="Path-2-Copy-3" fill="#FFFFFF" transform="translate(261.125157, 276.471427) scale(1, -1) rotate(-234.000000) translate(-261.125157, -276.471427) "></path>
        <!-- box 1 petal-->
        <path d="M218.765087,225.951849 C221.327885,231.095798 223.633352,235.225073 225.681489,238.339674 C242.405786,263.772304 254,269.075716 254,287.421935 C254,308.702058 241.568003,329.22808 216.704008,349 C207.688651,343.891736 201.798296,340.303278 199.032942,338.234626 C179.188852,323.390046 171,306.487176 171,288.886202 C171,270.522614 178.990502,266.924902 203.401428,238.296077 C205.662929,235.643817 208.041303,231.659125 210.536549,226.342001 C208.616917,226.773002 206.889729,227.213315 205.354987,227.662936 C176.143931,236.220679 167.682433,245.757714 150.137857,240.393799 C129.787574,234.172093 113.793206,216.282087 102.154753,186.72378 C109.675646,179.595863 114.829479,175.012052 117.616251,172.972347 C137.614044,158.335484 156.172528,155.446367 173.004423,160.592394 C190.565609,165.961387 191.669921,174.654612 211.910739,206.369154 C212.161107,206.761446 212.433582,207.162675 212.728162,207.572842 C213.188798,206.991924 213.620973,206.430371 214.024687,205.888183 C232.203495,181.474013 233.221617,168.765142 250.461424,162.490365 C270.458198,155.212135 293.998343,159.874078 321.081858,176.476196 C319.365093,186.694989 318.007666,193.457438 317.009576,196.76354 C309.847312,220.488031 296.764562,233.964157 280.225056,239.984044 C262.968928,246.264761 256.855272,239.986635 221.603948,226.839503 C220.746689,226.519785 219.800402,226.2239 218.765087,225.951849 Z" id="Combined-Shape" stroke="#6C11A2" stroke-width="2" fill="url(#radialGradient-6)"></path>

        <!-- box 1 petal highlight left-->
        <path d="M204.622489,202.82495 C203.240248,200.360664 198.474458,193.078442 191.626674,186.293375 C189.900237,184.582749 184.110584,180.013604 184.510758,182.340088 C185.454576,187.827154 212.889157,205.81317 173.332328,183.563422 C170.646665,182.052803 172.650544,187.827154 188.528876,196.430632 C190.639084,197.574022 192.953246,198.111646 194.883732,199.441049 C196.851482,200.796114 204.830032,205.061565 202.600745,204.227424 C129.254234,176.783086 178.083671,198.674704 196.436154,205.034845 C203.598427,207.516965 172.665653,200.11924 165.15445,200.087598 C162.537369,200.076574 175.758703,204.349606 178.284507,205.034845 C182.151817,206.084029 199.487796,209.241466 204.104545,212.012995 C199.487796,212.012995 175.459226,207.089454 169.875139,206.992814 C165.193123,206.911786 151.689795,206.060641 156.038635,206.992814 C164.594081,208.826672 187.12321,214.299791 195.392515,214.948364 C197.159461,215.086948 174.948524,217.201244 164.331024,219.630296 C173.332328,220.902958 195.423734,219.257208 198.732725,219.630296 C200.600628,219.840901 172.285096,225.201917 169.128877,227.464992 C168.52862,227.895389 187.206181,229.158704 194.365083,225.063423 C197.572319,223.22871 203.092923,224.258366 204.878994,220.945239 C207.396037,216.276176 205.06785,210.33831 205.162278,205.034845 L204.622489,202.82495 Z" id="Path-2" fill="#FFFFFF" transform="translate(180.620370, 204.841667) rotate(-2.000000) translate(-180.620370, -204.841667) "></path>

        <!-- box 1 petal highlight right-->
        <path d="M270.384339,203.559039 C269.002098,201.094753 264.236308,193.812531 257.388524,187.027464 C255.662087,185.316838 249.872434,180.747693 250.272608,183.074177 C251.216426,188.561243 278.651007,206.547259 239.094178,184.297511 C236.408515,182.786892 238.412394,188.561243 254.290726,197.164721 C256.400934,198.308111 258.715096,198.845735 260.645582,200.175138 C262.613332,201.530203 270.591882,205.795654 268.362595,204.961513 C195.016084,177.517175 243.845521,199.408792 262.198005,205.768934 C269.360277,208.251054 238.427503,200.853329 230.9163,200.821687 C228.299219,200.810663 241.520554,205.083695 244.046357,205.768934 C247.913668,206.818117 265.249646,209.975555 269.866395,212.747084 C265.249646,212.747084 241.221076,207.823543 235.636989,207.726903 C230.954973,207.645875 217.451645,206.79473 221.800485,207.726903 C230.355932,209.560761 252.88506,215.03388 261.154365,215.682453 C262.921311,215.821037 240.710374,217.935333 230.092874,220.364385 C239.094178,221.637047 261.185584,219.991297 264.494575,220.364385 C266.362478,220.57499 238.046946,225.936006 234.890727,228.199081 C234.29047,228.629478 252.968031,229.892793 260.126933,225.797512 C263.334169,223.962799 268.854773,224.992455 270.640844,221.679328 C273.157887,217.010265 270.8297,211.072398 270.924128,205.768934 L270.384339,203.559039 Z" id="Path-2" fill="#FFFFFF" transform="translate(246.382220, 205.575756) scale(1, -1) rotate(-191.000000) translate(-246.382220, -205.575756) "></path>

        <!-- box 1 petal highlight bottom-->
        <path d="M242.806132,265.369469 C241.423891,262.905182 227.257662,252.068844 220.409878,245.283777 C218.683441,243.573151 212.893788,239.004006 213.293962,241.33049 C214.23778,246.817556 241.672361,264.803572 202.115532,242.553824 C199.429869,241.043205 201.433748,246.817556 217.31208,255.421034 C219.422288,256.564424 221.73645,257.102048 223.666936,258.431451 C225.634686,259.786516 233.613236,264.051967 231.383949,263.217826 C158.037438,235.773488 206.866875,257.665106 225.219358,264.025247 C232.381631,266.507367 201.448857,259.109642 193.937654,259.078 C191.320573,259.066976 204.541908,263.340008 207.067711,264.025247 C210.935022,265.074431 228.271,268.231868 232.887749,271.003397 C228.271,271.003397 204.24243,266.079856 198.658343,265.983216 C193.976327,265.902188 180.472999,265.051043 184.821839,265.983216 C193.377285,267.817074 215.906414,273.290193 224.175719,273.938766 C225.942665,274.07735 203.731728,276.191646 193.114228,278.620698 C202.115532,279.89336 224.206938,278.24761 227.515929,278.620698 C229.383832,278.831303 201.0683,284.192319 197.912081,286.455394 C197.311824,286.885791 215.989385,288.149106 223.148287,284.053825 C226.355523,282.219112 229.512882,281.500495 233.662198,279.935642 C240.751458,277.262032 243.251493,272.882828 243.345921,267.579363 L242.806132,265.369469 Z" id="Path-2" fill="#FFFFFF" transform="translate(213.658454, 263.832069) scale(1, -1) rotate(-285.000000) translate(-213.658454, -263.832069) "></path>

        <!-- box 1 stigma -->
        <path d="M220.111522,224.501801 L219.498799,224.211669 L222.309905,179.632103 L222.341191,179.439244 L222.602539,178.451518 C222.830751,177.589023 222.939668,176.700464 222.926394,175.809648 C222.844545,170.316429 218.230774,165.920517 212.612144,166.001092 C211.737523,166.013634 210.868079,166.134685 210.024593,166.361331 C204.511547,167.842695 201.27315,173.416505 202.778696,178.809191 L202.899188,179.24078 L202.934051,179.446963 L205.808996,225.196822 L169.471627,253.98901 L169.30737,254.094808 L168.398471,254.561507 C167.604808,254.969035 166.871601,255.482656 166.218477,256.088592 C162.190988,259.825099 162.011404,266.195238 165.83088,270.316778 C166.425437,270.958356 167.097167,271.52348 167.83,271.998656 C172.619815,275.104422 178.928874,273.781413 181.929014,269.054163 L182.169121,268.675831 L182.299017,268.511959 L213.42376,236.733114 L241.380894,270.778607 L241.489543,270.940992 L241.972033,271.841608 C242.39335,272.628038 242.919689,273.35217 243.536931,273.994619 C247.343158,277.956284 253.715462,278.024666 257.769715,274.133841 C258.400819,273.528177 258.954133,272.846687 259.416448,272.105673 C262.438146,267.262384 261.005231,260.977375 256.226341,258.060194 L255.843876,257.826726 L255.677762,257.69971 L221.79841,225.656859 C221.29496,225.180699 220.727125,224.793297 220.111522,224.501801 Z" id="Combined-Shape-Copy-2" stroke="#6C11A2" stroke-width="2" fill="#6C11A2" transform="translate(212.039121, 221.504710) rotate(-360.000000) translate(-212.039121, -221.504710) "></path>
    </g>
</svg>